<svg preserveAspectRatio="none" width="100%" height="100%" overflow="visible" style="display: block;" viewBox="0 0 124.332 25.2997" fill="none" xmlns="http://www.w3.org/2000/svg">
<g id="Group 19426">
<path id="Vector" d="M10.1849 0.0645752C10.6702 0.0645752 10.9129 0.0645745 11.1555 0.792516L19.3449 24.3232C19.5268 24.8692 19.3449 25.0512 18.8596 25.0512H17.7676C17.2217 25.0512 17.0397 25.0512 16.7971 24.3232L14.8559 18.6817C14.7346 18.2571 14.6132 18.1964 14.1279 18.1964H5.27132C4.78602 18.1964 4.72536 18.1964 4.54337 18.6817L2.6022 24.3232C2.35955 25.0512 2.23823 25.0512 1.63161 25.0512H0.539693C0.175722 25.0512 -0.127588 24.8692 0.054397 24.3232L8.24374 0.792516C8.48639 0.0645745 8.72904 0.0645752 9.21433 0.0645752H10.1849ZM9.51764 3.94693L5.69595 15.5333C5.57462 15.8366 5.69595 15.8973 5.93859 15.8973H13.5213C13.7033 15.8973 13.8853 15.776 13.764 15.5333L9.94227 3.94693C9.94227 3.88627 9.88161 3.88627 9.88161 3.82561C9.82095 3.82561 9.82095 3.76495 9.76029 3.76495C9.69962 3.76495 9.63896 3.76495 9.63896 3.82561C9.5783 3.88627 9.5783 3.94693 9.51764 3.94693Z" fill="var(--fill-0, white)"/>
<path id="Vector_2" d="M20.1335 0.0645752H34.9349C35.4809 0.0645752 35.6629 0.24656 35.6629 0.792516V1.64178C35.6629 2.18774 35.4809 2.36972 34.9349 2.36972H29.4754C28.9901 2.36972 28.7474 2.61237 28.7474 3.09767V24.3839C28.7474 24.9299 28.5654 25.1118 28.0802 25.1118H26.9882C26.4423 25.1118 26.2603 24.9299 26.2603 24.3839V3.09767C26.2603 2.61237 26.0177 2.36972 25.5324 2.36972H20.0728C19.5268 2.36972 19.4055 2.18774 19.4055 1.64178V0.792516C19.4055 0.24656 19.5875 0.0645752 20.1335 0.0645752Z" fill="var(--fill-0, white)"/>
<path id="Vector_3" d="M39.1813 0.0645752H53.9828C54.5288 0.0645752 54.7107 0.24656 54.7107 0.792516V1.64178C54.7107 2.18774 54.5288 2.36972 53.9828 2.36972H48.4626C47.9773 2.36972 47.7346 2.61237 47.7346 3.09767V24.3839C47.7346 24.9299 47.5526 25.1118 47.0673 25.1118H45.9754C45.4295 25.1118 45.2475 24.9299 45.2475 24.3839V3.09767C45.2475 2.61237 45.0048 2.36972 44.5196 2.36972H39.1813C38.6354 2.36972 38.4534 2.18774 38.4534 1.64178V0.792516C38.4534 0.24656 38.6354 0.0645752 39.1813 0.0645752Z" fill="var(--fill-0, white)"/>
<path id="Vector_4" d="M61.1955 22.0846C61.1955 22.5699 61.4382 22.8126 61.9234 22.8126H72.1753C72.7212 22.8126 72.9032 22.9946 72.9032 23.5405V24.3898C72.9032 24.9357 72.7212 25.1177 72.1753 25.1177H59.3757C58.8297 25.1177 58.6477 24.9357 58.6477 24.3898V0.853003C58.6477 0.307047 58.8297 0.125061 59.3757 0.125061H72.1146C72.6606 0.125061 72.8426 0.307047 72.8426 0.853003V1.70227C72.8426 2.24822 72.6606 2.43021 72.1146 2.43021H61.8628C61.3775 2.43021 61.1348 2.67286 61.1348 3.15815V10.1343C61.1348 10.6196 61.3775 10.8622 61.8628 10.8622H70.3554C70.9014 10.8622 71.0227 11.0442 71.0227 11.5901V12.4394C71.0227 12.9854 70.8407 13.1674 70.3554 13.1674H61.8628C61.3775 13.1674 61.1348 13.41 61.1348 13.8953L61.1955 22.0846Z" fill="var(--fill-0, white)"/>
<path id="Vector_5" d="M79.9946 0.489207L93.2796 19.349C93.4616 19.5916 93.6435 19.4703 93.6435 19.349V0.91384C93.6435 0.367884 93.8255 0.185898 94.3715 0.185898H95.4634C96.0094 0.185898 96.1913 0.367884 96.1913 0.91384V24.4446C96.1913 24.9905 96.0094 25.1725 95.4634 25.1725H94.7961C94.4322 25.1725 94.3108 25.0512 94.1288 24.7479L80.8439 5.82745C80.6619 5.5848 80.4799 5.70612 80.4799 5.82745V24.3232C80.4799 24.8692 80.298 25.0512 79.752 25.0512H78.6601C78.1141 25.0512 77.9928 24.8692 77.9928 24.3232V0.792516C77.9928 0.24656 78.1748 0.0645752 78.6601 0.0645752H79.3274C79.6913 0.0645752 79.752 0.185898 79.9946 0.489207Z" fill="var(--fill-0, white)"/>
<path id="Vector_6" d="M101.53 22.206C101.227 21.9027 101.227 21.7207 101.409 21.478L102.197 20.5074C102.44 20.2041 102.682 20.1435 102.986 20.5074C104.684 22.0846 106.868 22.9946 109.173 22.9946C112.328 22.9946 114.572 21.478 114.572 18.8089C114.572 12.9854 102.076 13.3493 102.076 5.82727C102.076 2.73352 104.806 -0.117586 109.841 0.00373752C112.085 0.0643993 114.269 0.792341 116.089 2.06624C116.331 2.24822 116.392 2.36955 116.21 2.73352L115.543 3.88609C115.361 4.1894 115.179 4.06808 114.936 3.88609C113.359 2.85484 111.539 2.24822 109.659 2.18756C106.262 2.18756 104.563 3.88609 104.563 5.76661C104.563 11.3475 117.059 11.2868 117.059 18.5663C117.059 22.6913 113.42 25.2997 109.173 25.2997C106.383 25.1784 103.592 24.1471 101.53 22.206Z" fill="var(--fill-0, white)"/>
<path id="Vector_7" d="M123.604 25.1177H122.573C122.027 25.1177 121.845 24.9357 121.845 24.3898V0.853003C121.845 0.307047 122.027 0.125061 122.573 0.125061H123.604C124.15 0.125061 124.332 0.307047 124.332 0.853003V24.3837C124.332 24.9297 124.15 25.1117 123.604 25.1117V25.1177Z" fill="var(--fill-0, white)"/>
</g>
</svg>
