<svg preserveAspectRatio="none" width="100%" height="100%" overflow="visible" style="display: block;" viewBox="0 0 43.1427 49.0026" fill="none" xmlns="http://www.w3.org/2000/svg">
<path id="Vector" d="M43.1427 13.5579C43.1427 13.0969 43.0214 12.6419 42.7848 12.2416C42.5543 11.8412 42.2206 11.5075 41.8203 11.277L33.552 6.49688C33.1213 6.24817 32.6361 6.13291 32.1386 6.14504C31.9081 5.72041 31.5623 5.36857 31.1438 5.13199L22.8816 0.351838C22.4813 0.121324 22.0263 0 21.5653 0C21.1042 0 20.6493 0.121324 20.2489 0.351838L11.9868 5.13199C11.5682 5.37464 11.2285 5.72647 10.998 6.14504C10.5006 6.12684 10.0092 6.24817 9.5785 6.49688L1.31636 11.277C0.915993 11.5075 0.582353 11.8412 0.351838 12.2416C0.121324 12.6419 0 13.0969 0 13.5579V23.1121C0 23.6035 0.145588 24.0827 0.4125 24.4952C0.145588 24.9077 0.00606618 25.387 0 25.8783V35.4386C0 35.8997 0.121324 36.3546 0.351838 36.755C0.582353 37.1554 0.915993 37.489 1.3103 37.7195L9.57243 42.4997C9.9728 42.7302 10.4278 42.8515 10.8888 42.8515H10.9859C11.2164 43.2761 11.5621 43.628 11.9746 43.8706L20.2368 48.6508C20.6371 48.8813 21.0921 49.0026 21.5531 49.0026C22.0142 49.0026 22.4691 48.8813 22.8695 48.6508L31.1316 43.8706C31.5502 43.628 31.8899 43.2761 32.1204 42.8515H32.2175C32.6785 42.8515 33.1335 42.7302 33.5338 42.4997L41.8081 37.7195C42.2085 37.489 42.5421 37.1554 42.7726 36.755C43.0032 36.3546 43.1305 35.8997 43.1305 35.4386V25.8905C43.1305 25.3991 42.985 24.9259 42.718 24.5074C42.9789 24.0949 43.1245 23.6156 43.1305 23.1243V13.564L43.1427 13.5579ZM33.1881 7.1217L41.4563 11.914C41.7475 12.0838 41.984 12.3204 42.1539 12.6055C42.3237 12.8967 42.4147 13.2182 42.4147 13.5518V23.1061C42.4147 23.3791 42.3541 23.646 42.2388 23.8947C42.1114 23.7794 41.978 23.6763 41.8263 23.5914L33.546 18.8112C33.1153 18.5625 32.6239 18.4412 32.1265 18.4594C32.1083 18.4169 32.0962 18.3805 32.0719 18.3381C32.3327 17.9256 32.4783 17.4463 32.4844 16.955V7.38254C32.4844 7.20056 32.4541 7.01857 32.4116 6.84265C32.6846 6.87298 32.9515 6.96398 33.182 7.1035L33.1881 7.1217ZM31.7686 41.5776C31.7686 41.7353 31.7383 41.893 31.6958 42.0447C31.5502 42.0022 31.4168 41.9416 31.2833 41.8748L23.009 37.0947C22.7785 36.9612 22.5783 36.7793 22.4145 36.5609C22.5723 36.5063 22.7239 36.4335 22.8695 36.3486L31.1316 31.5684C31.2894 31.4774 31.441 31.3743 31.5805 31.259C31.6897 31.4956 31.7504 31.7565 31.7565 32.0234V41.5837L31.7686 41.5776ZM11.3741 41.5776V32.0173C11.3741 31.7565 11.4348 31.4956 11.5439 31.253C11.6774 31.3743 11.8291 31.4774 11.9807 31.5623L20.2489 36.3425C20.3945 36.4274 20.5462 36.5002 20.7039 36.5548C20.5462 36.7732 20.346 36.9552 20.1155 37.0886L11.8473 41.8688C11.7199 41.9416 11.5803 42.0022 11.4348 42.0386C11.3923 41.887 11.3741 41.7293 11.368 41.5715L11.3741 41.5776ZM11.3741 7.41287C11.3741 7.25515 11.3984 7.09743 11.4408 6.94578C11.5864 6.98824 11.7199 7.04284 11.8533 7.11563L20.1397 11.9079C20.3824 12.0474 20.5886 12.2355 20.7463 12.466C20.5826 12.5206 20.4248 12.5934 20.2732 12.6783L12.011 17.4585C11.8594 17.5495 11.7138 17.6465 11.5743 17.7618C11.459 17.5131 11.4044 17.2462 11.3984 16.9792L11.3802 7.40681L11.3741 7.41287ZM31.7686 7.41287V16.9732C31.7686 17.2462 31.7019 17.5131 31.5866 17.7618C31.4531 17.6465 31.3076 17.5434 31.1559 17.4524L22.8877 12.6723C22.736 12.5873 22.5783 12.5145 22.4085 12.4599C22.5662 12.2355 22.7724 12.0535 23.009 11.92L31.2772 7.1399C31.4046 7.0671 31.5441 7.00644 31.6897 6.97004C31.7322 7.10956 31.7625 7.25515 31.7747 7.40074V7.41894L31.7686 7.41287ZM22.5177 13.2971L30.7859 18.0772C30.9193 18.1561 31.0406 18.2471 31.1498 18.3502C31.0406 18.4594 30.9193 18.5504 30.7859 18.6232L22.5177 23.4155C22.3903 23.4883 22.2508 23.5489 22.1052 23.5853C22.0627 23.4337 22.0384 23.2759 22.0324 23.1182V13.5458C22.0384 13.3941 22.0627 13.2485 22.1052 13.109C22.2508 13.1515 22.3903 13.2121 22.5177 13.2849V13.2971ZM21.0254 13.5579V23.1121C21.0314 23.2699 21.0254 23.4215 20.989 23.5792C20.8434 23.5368 20.7099 23.4822 20.5765 23.4094L12.3204 18.6292C12.187 18.5504 12.0656 18.4594 11.9564 18.3563C12.0656 18.2531 12.187 18.1621 12.3204 18.0833L20.5886 13.3031C20.716 13.2243 20.8555 13.1697 21.0011 13.1272C21.0254 13.2728 21.0314 13.4184 21.0254 13.564V13.5579ZM10.7007 29.7971C10.4278 29.7728 10.1669 29.6879 9.93034 29.5484L1.6682 24.7682C1.53474 24.6894 1.41342 24.5984 1.30423 24.4952C1.41342 24.386 1.53474 24.2951 1.6682 24.2223L9.93034 19.4421C10.1669 19.3026 10.4338 19.2237 10.7068 19.1934C10.6643 19.3693 10.6461 19.5513 10.6401 19.7333V29.2936C10.6401 29.4634 10.6643 29.6333 10.6947 29.8031L10.7007 29.7971ZM11.368 29.2875V19.7212C11.368 19.5634 11.3923 19.4057 11.4348 19.2541C11.5803 19.2965 11.7138 19.3511 11.8473 19.4239L20.1337 24.2344C20.2671 24.3072 20.3884 24.3982 20.4976 24.5074C20.3884 24.6105 20.2671 24.7076 20.1337 24.7803L11.8654 29.5605C11.7381 29.6333 11.5985 29.694 11.4529 29.7304C11.4044 29.5848 11.3741 29.427 11.368 29.2754V29.2875ZM20.6068 35.748L12.3204 30.9497C12.1809 30.8708 12.0535 30.7737 11.9443 30.6585C12.0596 30.5432 12.187 30.4462 12.3204 30.3673L20.5886 25.5872C20.7099 25.5144 20.8373 25.4537 20.9708 25.4173C21.0011 25.569 21.0133 25.7267 21.0072 25.8844V35.4447C21.0133 35.6024 21.0011 35.7541 20.9708 35.9118C20.8434 35.8754 20.7221 35.8269 20.6068 35.7601V35.748ZM22.0202 35.4568V25.8844C22.0202 25.7267 22.0506 25.569 22.093 25.4173C22.2386 25.4598 22.3721 25.5144 22.5055 25.5872L30.7737 30.3673C30.9133 30.4462 31.0467 30.5432 31.162 30.6585C31.0467 30.7677 30.9193 30.8708 30.7798 30.9497L22.5237 35.7419C22.3963 35.8147 22.2568 35.8754 22.1112 35.9118C22.0627 35.7541 22.0324 35.5903 22.0263 35.4265V35.4447L22.0202 35.4568ZM31.2772 29.5726L23.003 24.7743C22.8695 24.6954 22.7482 24.6044 22.639 24.5013C22.7482 24.3982 22.8695 24.3133 23.003 24.2465L31.2712 19.4664C31.3986 19.3936 31.5381 19.339 31.6837 19.2965C31.7261 19.4482 31.7504 19.6059 31.7565 19.7636V29.3239C31.7565 29.4695 31.7322 29.6151 31.6897 29.7607C31.5441 29.7122 31.4046 29.6454 31.2772 29.5666V29.5848V29.5726ZM32.4177 19.2116C32.6906 19.2359 32.9576 19.3208 33.2002 19.4603L41.4563 24.2405C41.5897 24.3133 41.7111 24.4042 41.8203 24.5134C41.7111 24.6226 41.5897 24.7136 41.4563 24.7864L33.1941 29.5666C32.9636 29.7061 32.6967 29.791 32.4298 29.8153C32.4662 29.6454 32.4905 29.4756 32.4965 29.3057V19.7212C32.4905 19.5452 32.4662 19.3632 32.4237 19.1934V19.2116H32.4177ZM12.3265 5.75074L20.5947 0.970589C20.8859 0.800736 21.2134 0.709743 21.5531 0.709743C21.8868 0.709743 22.2144 0.800736 22.5055 0.964523L30.7919 5.74467C31.0224 5.87813 31.2226 6.06012 31.3804 6.2785C31.2226 6.33309 31.071 6.39982 30.9254 6.48475L22.6572 11.2649C22.2326 11.5136 21.8868 11.8776 21.6563 12.3143H21.4864C21.2559 11.8776 20.9101 11.5136 20.4855 11.2649L12.2173 6.48475C12.0717 6.40589 11.92 6.33309 11.7623 6.2785C11.914 6.06012 12.1081 5.87813 12.3325 5.74467L12.3265 5.75074ZM0.709743 13.5579C0.709743 13.2243 0.800736 12.8967 0.970589 12.6116C1.14044 12.3265 1.37702 12.0838 1.66213 11.914L9.92427 7.13383C10.1609 6.99431 10.4278 6.91545 10.7007 6.88512C10.6583 7.06103 10.6401 7.24302 10.634 7.42501V16.9671C10.6401 17.4585 10.7857 17.9316 11.0465 18.3502C11.0223 18.3927 11.0041 18.4291 10.9859 18.4715C10.4884 18.4473 10.0031 18.5686 9.57243 18.8234L1.31636 23.6035C1.17077 23.6884 1.03125 23.7916 0.903861 23.9068C0.79467 23.6581 0.734008 23.3912 0.734008 23.1182L0.703677 13.564L0.709743 13.5579ZM9.92427 41.8688L1.66213 37.0886C1.37702 36.9188 1.13438 36.6822 0.970589 36.391C0.800736 36.0998 0.715809 35.7783 0.709743 35.4447V25.8844C0.709743 25.6114 0.764339 25.3445 0.879596 25.0958C1.00699 25.211 1.14651 25.3142 1.2921 25.4052L9.55424 30.1853C9.9546 30.4158 10.4096 30.5372 10.8706 30.5372H10.9555C10.9798 30.5796 10.9919 30.6281 11.0223 30.6706C10.7614 31.077 10.6219 31.5502 10.6098 32.0355V41.5958C10.6098 41.7778 10.634 41.9598 10.6765 42.1357C10.4156 42.0993 10.1669 42.0144 9.94247 41.8748H9.92427V41.8688ZM30.7737 43.2397L22.5055 48.0199C22.2144 48.1837 21.8868 48.2747 21.5531 48.2747C21.2195 48.2747 20.8919 48.1897 20.6008 48.0199L12.3325 43.2397C12.102 43.1063 11.9018 42.9243 11.7441 42.7059C11.9018 42.6513 12.0535 42.5785 12.1991 42.4936L20.4673 37.7134C20.8859 37.4708 21.2256 37.119 21.4561 36.6943H21.6502C21.8807 37.119 22.2265 37.4708 22.639 37.7134L30.9072 42.4936C31.0528 42.5785 31.2044 42.6453 31.3622 42.7059C31.2105 42.9182 31.0164 43.1002 30.7919 43.2397H30.7737ZM42.4087 35.4326C42.4087 35.7662 42.3177 36.0938 42.1478 36.385C41.978 36.6761 41.7353 36.9127 41.4502 37.0765L33.2002 41.8688C32.9636 42.0083 32.7028 42.0932 32.4298 42.1175C32.4723 41.9416 32.4965 41.7596 32.5026 41.5776V32.0173C32.4905 31.532 32.3509 31.0588 32.0901 30.6524C32.1144 30.6099 32.1326 30.5614 32.1568 30.519H32.2357C32.6967 30.519 33.1517 30.3976 33.552 30.1671L41.8142 25.387C41.9598 25.296 42.0993 25.1929 42.2267 25.0776C42.3419 25.3263 42.4026 25.5932 42.4026 25.8662L42.4147 35.4265L42.4087 35.4326Z" fill="var(--fill-0, #56BCCF)"/>
</svg>
