<svg preserveAspectRatio="none" width="100%" height="100%" overflow="visible" style="display: block;" viewBox="0 0 124 27" fill="none" xmlns="http://www.w3.org/2000/svg">
<g id="CTA &#38; icons">
<g id="Why gamified training? Products chevron-down Solutions chevron-down Customers chevron-down Company chevron-down search circle-user globe">
<path d="M27.125 24.8379L19.9132 17.7715C21.474 15.9258 22.3351 13.5527 22.3351 10.9688C22.3351 4.95703 17.276 0 11.1406 0C4.95139 0 0 4.95703 0 10.9688C0 17.0332 5.00521 21.9375 11.1406 21.9375C13.724 21.9375 16.1458 21.0938 18.0833 19.5645L25.2951 26.6309C25.5642 26.8945 25.8872 27 26.2639 27C26.5868 27 26.9097 26.8945 27.125 26.6309C27.6632 26.1562 27.6632 25.3652 27.125 24.8379ZM2.58333 10.9688C2.58333 6.32812 6.40451 2.53125 11.1944 2.53125C15.9306 2.53125 19.8056 6.32812 19.8056 10.9688C19.8056 15.6621 15.9306 19.4062 11.1944 19.4062C6.40451 19.4062 2.58333 15.6621 2.58333 10.9688Z" fill="var(--fill-0, white)"/>
<path d="M62 5.90625C59.3628 5.90625 57.2639 8.01562 57.2639 10.5469C57.2639 13.1309 59.3628 15.1875 62 15.1875C64.5833 15.1875 66.7361 13.1309 66.7361 10.5469C66.7361 8.01562 64.5833 5.90625 62 5.90625ZM62 12.6562C60.7622 12.6562 59.8472 11.7598 59.8472 10.5469C59.8472 9.38672 60.7622 8.4375 62 8.4375C63.184 8.4375 64.1528 9.38672 64.1528 10.5469C64.1528 11.7598 63.184 12.6562 62 12.6562ZM62 0C54.3576 0 48.2222 6.06445 48.2222 13.5C48.2222 20.9883 54.3576 27 62 27C69.5885 27 75.7778 20.9883 75.7778 13.5C75.7778 6.06445 69.5885 0 62 0ZM62 24.4688C59.4705 24.4688 57.1563 23.6777 55.2726 22.3066C56.1875 20.5137 58.0174 19.4062 60.0625 19.4062H63.8837C65.9288 19.4062 67.7587 20.5664 68.6736 22.3066C66.7899 23.6777 64.4757 24.4688 62 24.4688ZM70.6111 20.5137C69.158 18.2988 66.6823 16.875 63.8837 16.875H60.0625C57.2639 16.875 54.7882 18.2988 53.3351 20.5137C51.7205 18.6152 50.8056 16.1895 50.8056 13.5C50.8056 7.48828 55.8108 2.53125 62 2.53125C68.1354 2.53125 73.1944 7.48828 73.1944 13.5C73.1944 16.1895 72.2257 18.6152 70.6111 20.5137Z" fill="var(--fill-0, white)"/>
<path d="M110.222 0C117.811 0 124 6.06445 124 13.5C124 20.9883 117.811 27 110.222 27C102.58 27 96.4444 20.9883 96.4444 13.5C96.4444 6.06445 102.58 0 110.222 0ZM110.222 24.4688C110.599 24.4688 111.622 24.0996 112.752 21.9375C113.236 20.9883 113.613 19.8809 113.936 18.5625H106.455C106.778 19.8809 107.155 20.9883 107.639 21.9375C108.769 24.0996 109.792 24.4688 110.222 24.4688ZM106.024 16.0312H114.366C114.474 15.2402 114.528 14.3965 114.528 13.5C114.528 12.6562 114.474 11.8125 114.366 10.9688H106.024C105.917 11.8125 105.917 12.6562 105.917 13.5C105.917 14.3965 105.917 15.2402 106.024 16.0312ZM113.936 8.4375C113.613 7.17188 113.236 6.06445 112.752 5.11523C111.622 2.95312 110.599 2.53125 110.222 2.53125C109.792 2.53125 108.769 2.95312 107.639 5.11523C107.155 6.06445 106.778 7.17188 106.455 8.4375H113.936ZM116.95 10.9688C117.057 11.8125 117.111 12.6562 117.111 13.5C117.111 14.3965 117.057 15.2402 116.95 16.0312H121.094C121.309 15.2402 121.417 14.3965 121.417 13.5C121.417 12.6562 121.309 11.8125 121.094 10.9688H116.95ZM114.851 3.5332C115.604 4.9043 116.196 6.5918 116.573 8.4375H120.125C118.995 6.27539 117.111 4.53516 114.851 3.5332ZM105.54 3.5332C103.28 4.53516 101.396 6.27539 100.266 8.4375H103.818C104.194 6.5918 104.786 4.9043 105.54 3.5332ZM99.0278 13.5C99.0278 14.3965 99.0816 15.2402 99.2969 16.0312H103.441C103.333 15.2402 103.333 14.3965 103.333 13.5C103.333 12.6562 103.333 11.8125 103.441 10.9688H99.2969C99.0816 11.8125 99.0278 12.6562 99.0278 13.5ZM120.125 18.5625H116.573C116.196 20.4609 115.604 22.1484 114.851 23.5195C117.111 22.5176 118.995 20.7773 120.125 18.5625ZM103.818 18.5625H100.266C101.396 20.7773 103.28 22.5176 105.54 23.5195C104.786 22.1484 104.194 20.4609 103.818 18.5625Z" fill="var(--fill-0, white)"/>
</g>
</g>
</svg>
